<?xml version="1.0" encoding="UTF-8" standalone="no"?>
<!-- Created with Inkscape (http://www.inkscape.org/) -->

<svg
   width="1259.6638"
   height="412.89877"
   viewBox="0 0 1259.6638 412.89877"
   version="1.1"
   id="SVGRoot"
   sodipodi:docname="qudical.svg"
   inkscape:version="1.2.1 (9c6d41e410, 2022-07-14)"
   inkscape:export-filename="logov3.png"
   inkscape:export-xdpi="192.05124"
   inkscape:export-ydpi="192.05124"
   xmlns:inkscape="http://www.inkscape.org/namespaces/inkscape"
   xmlns:sodipodi="http://sodipodi.sourceforge.net/DTD/sodipodi-0.dtd"
   xmlns:xlink="http://www.w3.org/1999/xlink"
   xmlns="http://www.w3.org/2000/svg"
   xmlns:svg="http://www.w3.org/2000/svg">
  <sodipodi:namedview
     id="namedview4122"
     pagecolor="#ffffff"
     bordercolor="#000000"
     borderopacity="0.25"
     inkscape:showpageshadow="2"
     inkscape:pageopacity="0.0"
     inkscape:pagecheckerboard="0"
     inkscape:deskcolor="#d1d1d1"
     inkscape:document-units="px"
     showgrid="false"
     inkscape:zoom="0.78820302"
     inkscape:cx="-950.26279"
     inkscape:cy="-327.32684"
     inkscape:window-width="2510"
     inkscape:window-height="1020"
     inkscape:window-x="50"
     inkscape:window-y="26"
     inkscape:window-maximized="1"
     inkscape:current-layer="g15035"
     showguides="true"
     inkscape:lockguides="false">
    <inkscape:grid
       type="xygrid"
       id="grid21578"
       originx="-265.65913"
       originy="-239.7628" />
  </sodipodi:namedview>
  <defs
     id="defs4117">
    <linearGradient
       id="linearGradient44508">
      <stop
         style="stop-color:#df2701;stop-opacity:1;"
         offset="0"
         id="stop44504" />
      <stop
         style="stop-color:#df5b01;stop-opacity:1;"
         offset="1"
         id="stop44506" />
    </linearGradient>
    <linearGradient
       id="linearGradient37138">
      <stop
         style="stop-color:#59055e;stop-opacity:1;"
         offset="0"
         id="stop37261" />
      <stop
         style="stop-color:#fd5602;stop-opacity:1;"
         offset="1"
         id="stop37263" />
    </linearGradient>
    <linearGradient
       id="linearGradient37138-2">
      <stop
         style="stop-color:#f210a2;stop-opacity:1;"
         offset="0"
         id="stop44487" />
      <stop
         style="stop-color:#66045c;stop-opacity:1;"
         offset="1"
         id="stop44502" />
    </linearGradient>
    <linearGradient
       inkscape:collect="always"
       xlink:href="#linearGradient37138"
       id="linearGradient37132"
       x1="838.34564"
       y1="580"
       x2="840"
       y2="270"
       gradientUnits="userSpaceOnUse" />
    <radialGradient
       inkscape:collect="always"
       xlink:href="#linearGradient44508"
       id="radialGradient37323"
       cx="895.51483"
       cy="263.70065"
       fx="895.51483"
       fy="263.70065"
       r="43.114578"
       gradientTransform="matrix(1,0,0,0.31776223,-12.539335,179.90654)"
       gradientUnits="userSpaceOnUse" />
    <radialGradient
       inkscape:collect="always"
       xlink:href="#linearGradient44508"
       id="radialGradient38863"
       gradientUnits="userSpaceOnUse"
       gradientTransform="matrix(1,0,0,0.31776223,-12.539335,179.90654)"
       cx="895.51483"
       cy="263.70065"
       fx="895.51483"
       fy="263.70065"
       r="43.114578" />
    <radialGradient
       inkscape:collect="always"
       xlink:href="#linearGradient37138-2"
       id="radialGradient44500"
       cx="854.59906"
       cy="200.05208"
       fx="854.59906"
       fy="200.05208"
       r="57.137009"
       gradientUnits="userSpaceOnUse"
       gradientTransform="matrix(0.16828147,1.1648332,-0.98972502,0.1429839,908.78242,-824.01747)" />
    <linearGradient
       inkscape:collect="always"
       xlink:href="#linearGradient37138"
       id="linearGradient50779"
       gradientUnits="userSpaceOnUse"
       x1="838.34564"
       y1="580"
       x2="840"
       y2="270" />
    <linearGradient
       inkscape:collect="always"
       xlink:href="#linearGradient37138"
       id="linearGradient50781"
       gradientUnits="userSpaceOnUse"
       x1="838.34564"
       y1="580"
       x2="840"
       y2="270" />
    <linearGradient
       inkscape:collect="always"
       xlink:href="#linearGradient37138"
       id="linearGradient50783"
       gradientUnits="userSpaceOnUse"
       x1="838.34564"
       y1="580"
       x2="840"
       y2="270" />
    <linearGradient
       inkscape:collect="always"
       xlink:href="#linearGradient37138"
       id="linearGradient50785"
       gradientUnits="userSpaceOnUse"
       x1="838.34564"
       y1="580"
       x2="840"
       y2="270" />
    <linearGradient
       inkscape:collect="always"
       xlink:href="#linearGradient37138"
       id="linearGradient50787"
       gradientUnits="userSpaceOnUse"
       x1="838.34564"
       y1="580"
       x2="840"
       y2="270" />
    <linearGradient
       inkscape:collect="always"
       xlink:href="#linearGradient37138"
       id="linearGradient50789"
       gradientUnits="userSpaceOnUse"
       x1="838.34564"
       y1="580"
       x2="840"
       y2="270" />
    <linearGradient
       inkscape:collect="always"
       xlink:href="#linearGradient37138"
       id="linearGradient50791"
       gradientUnits="userSpaceOnUse"
       x1="838.34564"
       y1="580"
       x2="840"
       y2="270" />
    <linearGradient
       inkscape:collect="always"
       xlink:href="#linearGradient37138"
       id="linearGradient50797"
       gradientUnits="userSpaceOnUse"
       x1="838.34564"
       y1="580"
       x2="840"
       y2="270" />
  </defs>
  <g
     inkscape:label="Logo"
     inkscape:groupmode="layer"
     id="layer1"
     style="display:inline"
     transform="translate(-265.65913,-239.7628)">
    <g
       id="logo"
       style="fill:url(#linearGradient37132);fill-opacity:1"
       transform="matrix(1,0,-0.36397023,1,149.86862,0)"
       inkscape:label="logo">
      <path
         id="path44260"
         d="m 840,239.76367 c -2.25781,0 -4.48793,0.1139 -6.68555,0.33594 -2.19762,0.22203 -4.36359,0.55305 -6.49023,0.98633 -2.10193,0.42824 -4.16539,0.95985 -6.1875,1.58398 -0.0469,0.0145 -0.0938,0.0284 -0.14063,0.043 -2.0208,0.62876 -3.99942,1.34996 -5.92968,2.16406 -3.89755,1.64382 -7.59829,3.65688 -11.0625,5.99219 -0.0122,0.008 -0.0249,0.0152 -0.0371,0.0234 -3.45264,2.33089 -6.66726,4.98506 -9.60352,7.91797 -0.0177,0.0177 -0.0351,0.035 -0.0527,0.0527 -2.93291,2.93626 -5.58708,6.15088 -7.91797,9.60352 -0.008,0.0122 -0.0152,0.0249 -0.0234,0.0371 -2.33531,3.46421 -4.34837,7.16495 -5.99219,11.0625 -0.8141,1.93026 -1.5353,3.90888 -2.16406,5.92968 -0.0146,0.0469 -0.0285,0.0937 -0.043,0.14063 -0.62413,2.02211 -1.15574,4.08557 -1.58398,6.1875 -0.43328,2.12664 -0.7643,4.29261 -0.98633,6.49023 -0.22204,2.19762 -0.33594,4.42774 -0.33594,6.68555 v 14.76367 H 760 c -3.20012,0 -6.36655,0.14248 -9.49219,0.41992 -3.12563,0.27744 -6.21056,0.68941 -9.25,1.23243 -3.03943,0.54301 -6.03309,1.21695 -8.97461,2.01367 -2.94151,0.79672 -5.83023,1.7173 -8.66211,2.75586 -2.83187,1.03856 -5.60589,2.19435 -8.3164,3.46289 -2.71052,1.26853 -5.35811,2.65008 -7.93555,4.13672 -2.57743,1.48664 -5.08494,3.0786 -7.51758,4.77148 -2.0348,1.41603 -4.00372,2.918 -5.92968,4.4707 l -8.62696,-8.62695 c -0.0879,-0.0879 -0.18095,-0.17052 -0.26953,-0.25781 -0.071,-0.07 -0.1454,-0.13555 -0.2168,-0.20508 -1.42169,-1.3847 -2.92165,-2.68534 -4.49804,-3.89453 -0.0719,-0.0551 -0.14073,-0.11323 -0.21289,-0.16797 -1.58855,-1.20496 -3.25567,-2.31126 -4.98438,-3.32227 -0.13391,-0.0783 -0.26764,-0.15532 -0.40234,-0.23242 -1.74943,-1.00132 -3.56059,-1.9064 -5.43555,-2.69336 -0.0523,-0.022 -0.1058,-0.0407 -0.1582,-0.0625 -1.87064,-0.77759 -3.80159,-1.43848 -5.78125,-1.98633 -0.11712,-0.0324 -0.23214,-0.068 -0.34961,-0.0996 -1.97809,-0.53174 -4.00565,-0.94222 -6.07617,-1.22852 -0.15143,-0.0209 -0.30321,-0.039 -0.45508,-0.0586 -2.11248,-0.27235 -4.2636,-0.42774 -6.45508,-0.42774 h -20 c -2.22048,0 -4.41407,0.11303 -6.57617,0.32813 -0.0502,0.005 -0.10021,0.0105 -0.15039,0.0156 -2.16088,0.22 -4.29076,0.54223 -6.38282,0.9668 -2.11009,0.42823 -4.18126,0.95625 -6.21093,1.58203 -0.0144,0.004 -0.0286,0.009 -0.043,0.0137 -2.02647,0.62633 -4.01152,1.34939 -5.94727,2.16211 -3.8833,1.63041 -7.57216,3.62481 -11.02734,5.94141 -0.009,0.006 -0.0168,0.0118 -0.0254,0.0176 -3.36804,2.26048 -6.50885,4.83145 -9.39063,7.66406 l -3.98632,-3.98633 c -1.24404,-1.24403 -2.55621,-2.41703 -3.92188,-3.52734 -0.0478,-0.0389 -0.0966,-0.0746 -0.14453,-0.11329 -2.80161,-2.26105 -5.84487,-4.22991 -9.0918,-5.85351 -0.0672,-0.0336 -0.13183,-0.0702 -0.19922,-0.10352 -1.59267,-0.7874 -3.23204,-1.49333 -4.91601,-2.10937 -0.0838,-0.0307 -0.16988,-0.0557 -0.25391,-0.0859 -1.62603,-0.58483 -3.29276,-1.08367 -4.99414,-1.49805 -0.17149,-0.0418 -0.34342,-0.0811 -0.51562,-0.12109 -1.65729,-0.38473 -3.34716,-0.68505 -5.06641,-0.89844 -0.16968,-0.0211 -0.33757,-0.0451 -0.50781,-0.0645 -1.85268,-0.21048 -3.73473,-0.33008 -5.64844,-0.33008 h -20 c -3.133,0 -6.20971,0.22316 -9.21875,0.65235 -3.00904,0.42918 -5.94966,1.06487 -8.80859,1.89062 -2.85894,0.82575 -5.63765,1.84156 -8.32032,3.03125 -2.68267,1.18969 -5.26975,2.55322 -7.75,4.07422 -1.75199,-1.484 -3.62686,-2.82897 -5.60742,-4.01172 -1.98056,-1.18275 -4.06734,-2.20406 -6.24609,-3.03906 -2.17021,-0.83173 -4.43082,-1.47732 -6.76758,-1.91797 -0.0183,-0.003 -0.0364,-0.006 -0.0547,-0.01 -2.33814,-0.43746 -4.75209,-0.66992 -7.22656,-0.66992 -4.174,0 -8.27257,0.31616 -12.27148,0.92578 -3.99892,0.60963 -7.89881,1.5135 -11.67774,2.6875 -3.77471,1.17269 -7.42706,2.61597 -10.9375,4.30664 -0.009,0.004 -0.0181,0.009 -0.0273,0.0137 -3.50836,1.69133 -6.87476,3.62921 -10.07422,5.79296 -2.7605,-2.14449 -5.69566,-4.07476 -8.7832,-5.76367 -3.08755,-1.6889 -6.32693,-3.13678 -9.69336,-4.3164 -3.35722,-1.1764 -6.84099,-2.0846 -10.42774,-2.70118 -0.0196,-0.003 -0.039,-0.006 -0.0586,-0.01 -3.58805,-0.61342 -7.27925,-0.93555 -11.04883,-0.93555 h -10 c -3.64281,0 -7.24154,0.18291 -10.78711,0.54102 -3.54557,0.35811 -7.03782,0.89101 -10.46875,1.58984 -3.43093,0.69883 -6.8007,1.56379 -10.09961,2.58594 -3.27527,1.01483 -6.47937,2.18745 -9.60742,3.50391 -0.0444,0.0187 -0.0884,0.0379 -0.13281,0.0566 -3.12662,1.32094 -6.17663,2.78517 -9.13868,4.39062 -2.98268,1.61663 -5.87729,3.37393 -8.67578,5.26172 -2.79848,1.88779 -5.50075,3.90728 -8.09765,6.04883 -2.5969,2.14155 -5.08888,4.40528 -7.4668,6.7832 -2.37792,2.37792 -4.64165,4.8699 -6.7832,7.4668 -2.14155,2.5969 -4.16104,5.29917 -6.04883,8.09765 -1.88779,2.79849 -3.64509,5.6931 -5.26172,8.67578 -1.60545,2.96205 -3.06968,6.01206 -4.39062,9.13868 -0.0188,0.0444 -0.038,0.0884 -0.0566,0.13281 -1.31646,3.12805 -2.48908,6.33215 -3.50391,9.60742 -1.02215,3.29891 -1.88711,6.66868 -2.58594,10.09961 -0.69883,3.43093 -1.23173,6.92318 -1.58984,10.46875 -0.35811,3.54557 -0.54102,7.1443 -0.54102,10.78711 0,3.64275 0.1829,7.24156 0.54102,10.78711 0.35811,3.54554 0.89101,7.03781 1.58984,10.46875 0.69884,3.43094 1.56378,6.80067 2.58594,10.09961 1.01484,3.2753 2.18744,6.47933 3.50391,9.60742 0.0187,0.0444 0.0379,0.0884 0.0566,0.13281 1.32094,3.12665 2.78518,6.1766 4.39062,9.13868 1.61663,2.98271 3.37395,5.87727 5.26172,8.67578 1.88777,2.7985 3.90731,5.50076 6.04883,8.09765 2.14152,2.59689 4.40533,5.08893 6.7832,7.4668 l 42.42578,42.42578 c 13.94781,13.94781 31.82054,23.9542 51.84571,28.31445 0.0615,0.14732 0.1347,0.28684 0.19726,0.4336 1.6162,3.79188 3.56713,7.40361 5.83984,10.7832 0.0441,0.0656 0.0904,0.12797 0.13477,0.19336 2.29298,3.38318 4.89504,6.5358 7.76758,9.42188 0.0607,0.061 0.11679,0.1248 0.17773,0.18554 0.88406,0.88127 1.78727,1.7428 2.72071,2.57227 l 37.16601,37.16601 c 1.65595,1.84909 3.4062,3.61287 5.26172,5.26172 11.51199,10.22999 26.6903,16.42969 43.36328,16.42969 h 15 925.00394 c 36.12,0 65.2305,-29.11136 65.2305,-65.23633 v -15 c 0,-11.08699 -4.4693,-21.05802 -11.6993,-28.29101 l -12.8476,-12.84766 c 2.9132,-7.38721 4.5469,-15.41848 4.5469,-23.86133 v -185 c 0,-11.13699 -4.4898,-21.19571 -11.7598,-28.4707 l -42.4297,-42.42578 c -1.8175,-1.81875 -3.8097,-3.46422 -5.9492,-4.90821 -5e-4,-3e-4 0,3.1e-4 0,0 -2.1391,-1.44359 -4.4263,-2.6874 -6.834,-3.70312 -5e-4,-2.4e-4 0,2.3e-4 0,0 -2.4004,-1.01253 -4.921,-1.79763 -7.5352,-2.33203 -0.016,-0.003 -0.032,-0.006 -0.049,-0.01 -2.6155,-0.53129 -5.3235,-0.8125 -8.0996,-0.8125 h -15 c -2.2575,0 -4.4883,0.11403 -6.6855,0.33594 -7e-4,6e-5 0,-7e-5 0,0 -2.1979,0.22203 -4.3614,0.55305 -6.4883,0.98633 -2.1087,0.42958 -4.1806,0.96121 -6.209,1.58789 -0.017,0.005 -0.035,0.0102 -0.053,0.0156 -0.015,0.005 -0.028,0.0111 -0.043,0.0156 -2.0292,0.63041 -4.0151,1.35464 -5.9531,2.17187 -6e-4,2.4e-4 0,-2.3e-4 0,0 -3.9036,1.64624 -7.6113,3.66226 -11.0801,6.00196 0,8e-4 0,0.001 0,0.002 -3.4695,2.34046 -6.6984,5.00713 -9.6465,7.95508 -11.7943,11.79344 -19.0742,28.10107 -19.0742,46.16406 v 15.00195 c 0,-2.4e-4 -0.01,2.4e-4 -0.01,0 -1.5675,-0.14657 -3.1446,-0.23828 -4.752,-0.23828 h -85 c -3.0362,0 -6.0401,0.12879 -9.0078,0.38086 -2.9678,0.25208 -5.8993,0.62767 -8.7891,1.12109 -2.8897,0.49343 -5.7387,1.10409 -8.541,1.82813 -2.8023,0.72404 -5.5584,1.56192 -8.2637,2.50586 -2.7053,0.94394 -5.3601,1.99533 -7.9589,3.14844 -2.5989,1.1531 -5.1422,2.40822 -7.625,3.75976 -2.4829,1.35155 -4.9043,2.79863 -7.2618,4.33789 -1.7979,1.17395 -3.5455,2.41767 -5.2656,3.69532 l -9.0762,-9.07813 c -0.8127,-0.8126 -1.6657,-1.58548 -2.5449,-2.32617 -0.041,-0.0346 -0.08,-0.071 -0.1211,-0.10547 -1.3242,-1.10665 -2.7229,-2.12459 -4.1836,-3.05469 -0.091,-0.0578 -0.1801,-0.1167 -0.2715,-0.17383 -1.4435,-0.90286 -2.9499,-1.71251 -4.5097,-2.42773 -0.1139,-0.0522 -0.2274,-0.10313 -0.3418,-0.1543 -1.5652,-0.6998 -3.182,-1.30308 -4.8477,-1.79882 -0.1128,-0.0336 -0.2265,-0.0631 -0.3398,-0.0957 -1.6925,-0.48726 -3.4294,-0.87207 -5.209,-1.13281 -0.076,-0.0112 -0.1538,-0.0185 -0.2305,-0.0293 -1.8323,-0.25759 -3.7036,-0.40039 -5.6113,-0.40039 h -95 c -3.0362,0 -6.04,0.12879 -9.0078,0.38086 -2.9678,0.25208 -5.8992,0.62767 -8.7891,1.12109 -2.8898,0.49343 -5.7386,1.10409 -8.541,1.82813 -2.8024,0.72404 -5.55834,1.56192 -8.26368,2.50586 -2.70534,0.94394 -5.36021,1.99533 -7.95899,3.14844 -2.59877,1.1531 -5.14232,2.40822 -7.625,3.75976 -2.48267,1.35155 -4.90467,2.79863 -7.26172,4.33789 -1.79788,1.17411 -3.54572,2.4175 -5.26562,3.69532 l -9.08008,-9.08008 c -0.80606,-0.80595 -1.65015,-1.57141 -2.52148,-2.30664 -0.0516,-0.0435 -0.10054,-0.0895 -0.15235,-0.13282 -1.32258,-1.1047 -2.72107,-2.12023 -4.17968,-3.04882 -0.0845,-0.0538 -0.16706,-0.10896 -0.25196,-0.16211 -1.44846,-0.90692 -2.95958,-1.71967 -4.52539,-2.4375 -0.11066,-0.0507 -0.22082,-0.10064 -0.33203,-0.15039 -1.56871,-0.70172 -3.18943,-1.30609 -4.85937,-1.80274 -0.10773,-0.032 -0.21611,-0.0606 -0.32422,-0.0918 -1.12919,-0.32535 -2.27801,-0.6063 -3.44727,-0.83203 -0.49196,-10.48151 -4.96176,-19.89718 -11.94531,-26.76953 l -42.1875,-42.18554 -0.01,-0.0117 c -0.004,-0.004 -0.008,-0.006 -0.0117,-0.01 l -0.21875,-0.21875 c -1.7419,-1.71406 -3.64256,-3.26765 -5.67382,-4.64258 -0.0276,-0.0187 -0.0544,-0.038 -0.082,-0.0566 -2.11379,-1.42314 -4.37108,-2.64805 -6.7461,-3.65429 -0.0316,-0.0134 -0.0621,-0.0277 -0.0937,-0.041 -2.3831,-1.00247 -4.88339,-1.78281 -7.47656,-2.31445 -0.0237,-0.005 -0.0466,-0.0108 -0.0703,-0.0156 -2.61502,-0.53122 -5.32241,-0.8125 -8.09766,-0.8125 z m 595.2363,42.42578 v 0 V 465 c 0,7.37112 -1.2506,14.42978 -3.5039,21.01953 -0.7507,2.19553 -1.6115,4.34053 -2.5761,6.42578 v 0.004 c 0,-0.001 -0.01,-0.003 -0.01,-0.004 0.966,-2.08611 1.829,-4.22941 2.5801,-6.42578 2.2534,-6.58911 3.5,-13.64893 3.5,-21.01953 z m 17.3282,233.66211 0.1679,0.16797 v 0.002 c 0.1887,0.50644 0.3628,1.01908 0.5313,1.53516 -0.1921,-0.58885 -0.481,-1.12881 -0.6992,-1.70508 z m -1132.74028,1.7461 c 2.95319,1.59827 5.9928,3.0594 9.10937,4.375 -3.11658,-1.31551 -6.15422,-2.77488 -9.10742,-4.37305 -4.1e-4,-7.7e-4 -0.002,-10e-4 -0.002,-0.002 z m 1133.49418,0.12304 c 0.6148,1.91181 1.0929,3.88561 1.416,5.91407 -0.3226,-2.02882 -0.8017,-4.0019 -1.416,-5.91407 z m -1124.30863,4.28516 c 3.13675,1.32118 6.3499,2.49586 9.63476,3.51367 3.29892,1.02216 6.66867,1.88711 10.09961,2.58594 3.43094,0.69883 6.92318,1.23173 10.46875,1.58984 3.54558,0.35812 7.14429,0.54102 10.78711,0.54102 -3.64287,0 -7.2415,-0.1829 -10.78711,-0.54102 -3.54561,-0.35811 -7.03778,-0.89101 -10.46875,-1.58984 -3.43096,-0.69884 -6.80068,-1.56378 -10.09961,-2.58594 -3.28403,-1.01754 -6.49878,-2.19291 -9.63476,-3.51367 z m 1125.73243,1.67383 c 0.3252,2.05697 0.498,4.16724 0.498,6.32031 v 15 c 0,18.06299 -7.2799,34.37062 -19.0742,46.16406 -2.9481,2.94795 -6.177,5.61462 -9.6465,7.95508 3.4683,-2.34017 6.6992,-5.00772 9.6465,-7.95508 11.7934,-11.79345 19.0703,-28.10159 19.0703,-46.16406 v -15 c 0,-2.15261 -0.1695,-4.26372 -0.4941,-6.32031 z m -28.2266,75.4414 c -3.4688,2.3397 -7.1765,4.35572 -11.0801,6.00196 3.9041,-1.6467 7.6109,-3.66152 11.0801,-6.00196 z m -11.082,6.00196 c -1.938,0.81723 -3.9239,1.54146 -5.9531,2.17187 2.0287,-0.63042 4.0155,-1.35468 5.9531,-2.17187 z m -6.0488,2.20312 c -2.0284,0.62668 -4.1003,1.15831 -6.209,1.58789 -2.1269,0.43328 -4.2904,0.7643 -6.4883,0.98633 2.197,-0.22204 4.3623,-0.55317 6.4883,-0.98633 2.1093,-0.42976 4.18,-0.96088 6.209,-1.58789 z m -978.47074,0.0762 c 1.82522,0.55461 3.68417,1.03014 5.57422,1.42578 -1.89017,-0.39568 -3.74888,-0.87112 -5.57422,-1.42578 z m 6.16016,1.54883 c 1.95081,0.38965 3.9349,0.69189 5.94531,0.9043 -2.01085,-0.21244 -3.99408,-0.51455 -5.94531,-0.9043 z m 959.61128,0.94922 c -2.1972,0.22191 -4.428,0.33594 -6.6855,0.33594 2.2578,0 4.4879,-0.1139 6.6855,-0.33594 z m -953.2148,0.008 c 2.14776,0.2119 4.32425,0.32813 6.5293,0.32813 -2.20506,0 -4.38153,-0.11623 -6.5293,-0.32813 z"
         inkscape:label="outline"
         style="display:inline;fill:#000000;fill-opacity:1;stroke:none;stroke-width:20;stroke-linejoin:round;stroke-dasharray:none;stroke-opacity:1"
         transform="translate(12.53934)" />
      <path
         id="path35243"
         style="fill:url(#linearGradient50779);fill-opacity:1;stroke:none;stroke-width:20;stroke-linejoin:round;stroke-dasharray:none;stroke-opacity:1"
         d="m 369.99948,350 c -41.54996,0 -74.99911,33.45036 -74.99911,75 0,41.54968 33.44898,75 74.99894,75 h 45.11718 l -0.11743,45 c -0.0501,19.37375 15.61076,35 35.00068,35 h 15 c 5.53997,0 10.00092,-4.46003 10.00092,-10 l 0.11583,-70 -0.11598,-140 c 0,-5.53994 -4.46104,-10 -10.00103,-10 -27.69998,0 -49.99876,22.30012 -49.99876,50 l -5.7e-4,-15 c 0,-19.38994 -15.61069,-35 -35.00067,-35 z m 10.00124,50 h 31.66602 c 1.8466,0 3.33261,1.48736 3.33261,3.33398 l 2.1e-4,40 c 0,3.69322 -2.97236,6.66602 -6.66556,6.66602 h -28.33399 c -13.84998,0 -24.99964,-11.15009 -24.99964,-25 0,-13.84988 11.15037,-25 25.00035,-25 z"
         inkscape:label="q" />
      <path
         id="path35245"
         style="fill:url(#linearGradient50781);fill-opacity:1;stroke:none;stroke-width:20;stroke-linejoin:round;stroke-dasharray:none;stroke-opacity:1"
         d="m 525,350 c -19.38994,0 -35,15.61006 -35,35 v 65 c 0,27.69967 22.30033,50 50,50 h 80 c 27.6997,0 50,-22.3003 50,-50 v -80 c 0,-11.07958 -8.92042,-20 -20,-20 h -20 c -19.38996,0 -35,15.61004 -35,35 v 50 c 0,5.53995 -4.46005,10 -10,10 h -10 c -5.53996,0 -10,-4.46004 -10,-10 v -65 c 0,-11.07956 -8.92044,-20 -20,-20 z"
         inkscape:label="u" />
      <path
         id="path35247"
         style="fill:url(#linearGradient50783);fill-opacity:1;stroke:none;stroke-width:20;stroke-linejoin:round;stroke-dasharray:none;stroke-opacity:1"
         d="m 915,350 c -19.3899,0 -35,15.6101 -35,35 v 105 c 0,5.53997 4.46003,10 10,10 h 15 c 19.38996,0 35,-15.61004 35,-35 V 360 c 0,-5.53996 -4.46004,-10 -10,-10 z"
         inkscape:label="i" />
      <path
         id="path35249"
         style="fill:url(#linearGradient50785);fill-opacity:1;stroke:none;stroke-width:20;stroke-linejoin:round;stroke-dasharray:none;stroke-opacity:1"
         d="m 1030,350 c -41.54972,0 -75,33.45028 -75,75 0,41.54968 33.45032,75 75,75 h 70 c 19.39,0 35,-15.6101 35,-35 v -5 c 0,-5.53996 -4.46,-10 -10,-10 h -85 c -13.8499,0 -25,-11.15009 -25,-25 0,-13.84993 11.1501,-25 25,-25 h 60 c 19.39,0 35,-15.61006 35,-35 v -5 c 0,-5.53998 -4.46,-10 -10,-10 z"
         inkscape:label="c" />
      <path
         id="path35251"
         style="fill:url(#linearGradient50787);fill-opacity:1;stroke:none;stroke-width:20;stroke-linejoin:round;stroke-dasharray:none;stroke-opacity:1"
         d="m 1225,350 c -41.55,0 -75,33.45028 -75,75 0,41.54968 33.45,75 75,75 h 10 c 19.39,0 35,-15.61004 35,-35 v -15 c 0,27.69991 22.3,50 50,50 5.54,0 10,-4.46005 10,-10 V 370 c 0,-11.07958 -8.9204,-20 -20,-20 z m 10,50 h 28.334 c 3.6932,0 6.666,2.9728 6.666,6.66602 v 40 c 0,1.84663 -1.4874,3.33398 -3.334,3.33398 H 1235 c -13.85,0 -25,-11.15011 -25,-25 0,-13.84992 11.15,-25 25,-25 z"
         inkscape:label="a" />
      <path
         id="path35253"
         style="fill:url(#linearGradient50789);fill-opacity:1;stroke:none;stroke-width:20;stroke-linejoin:round;stroke-dasharray:none;stroke-opacity:1"
         d="m 1380,270 c -19.39,0 -35,15.61006 -35,35 v 185 c 0,5.53995 4.46,10 10,10 h 15 c 19.39,0 35,-15.61008 35,-35 V 280 c 0,-5.53998 -4.46,-10 -10,-10 z"
         inkscape:label="l" />
      <path
         id="path35255"
         style="fill:url(#linearGradient50791);fill-opacity:1;stroke:none;stroke-width:20;stroke-linejoin:round;stroke-dasharray:none;stroke-opacity:1"
         inkscape:label="d"
         d="m 839.99905,270 c -19.38993,0 -34.99933,15.61008 -34.99933,35 l 0.002,45 h -45.00195 c -41.54996,0 -74.99911,33.45032 -74.99911,75 0,41.54964 33.44898,75 74.99894,75 h 10 c 19.38998,0 35.00127,-15.61006 35.00127,-35 l -5.7e-4,-15 c 0,27.69988 22.29933,50 49.9993,50 5.53999,0 10.00092,-4.46006 10.00092,-10 l -0.001,-133.13281 h 0.002 l -10e-4,-6.86719 6e-4,-70 c 0,-5.53997 -4.46106,-10 -10.00103,-10 z m -69.99833,130 h 28.33399 c 3.69319,0 6.66451,2.9728 6.66451,6.66602 l 2.1e-4,40 c 0,1.84662 -1.4868,3.33398 -3.3334,3.33398 h -31.66602 c -13.84998,0 -24.99964,-11.15012 -24.99964,-25 0,-13.84991 11.15037,-25 25.00035,-25 z" />
      <path
         id="path35263"
         style="fill:url(#linearGradient50797);fill-opacity:1;stroke:none;stroke-width:20;stroke-linejoin:round;stroke-dasharray:none;stroke-opacity:1"
         d="M 475,500 474.88438,519.99609 465,520 v 60 h 925 c 19.39,0 35,-15.61006 35,-35 v -15 c 0,-5.53998 -4.46,-10 -10,-10 H 495 c -11.0796,0 -20,-8.9204 -20,-20 z"
         sodipodi:nodetypes="ccccsssssc"
         inkscape:label="bar" />
      <path
         style="color:#000000;display:inline;fill:#000000;fill-opacity:1;stroke-linejoin:round;-inkscape-stroke:none"
         d="m 893.5427,247.80469 c -5.06335,0.1827 -10.45701,0.61936 -15.99023,1.32031 -11.06647,1.4019 -20.5564,3.56638 -27.50392,6.22266 -3.47374,1.32814 -6.30518,2.66143 -8.76366,4.79492 -1.22926,1.06674 -2.47413,2.39179 -3.24024,4.50586 -0.76612,2.11406 -0.55426,5.12035 0.5996,7.15625 2.30774,4.07178 5.49464,4.8974 8.6836,5.81836 3.18897,0.92095 6.86116,1.45749 11.07227,1.77148 8.42221,0.62799 18.93159,0.28276 29.99804,-1.11914 11.06644,-1.4019 20.55641,-3.56443 27.50391,-6.2207 3.47376,-1.32814 6.30519,-2.6634 8.76367,-4.79688 1.22924,-1.06674 2.47412,-2.38985 3.24024,-4.5039 0.76612,-2.11406 0.55423,-5.1223 -0.59962,-7.15821 -2.3077,-4.07181 -5.49463,-4.8974 -8.68359,-5.81836 -3.18895,-0.92096 -6.86116,-1.45553 -11.07226,-1.76953 -4.21111,-0.31399 -8.94447,-0.38582 -14.00781,-0.20312 z m 0.48633,13 c 4.65719,-0.16717 8.93321,-0.10402 12.55468,0.16601 0.28689,0.0214 0.38934,0.0794 0.66798,0.10352 -5.3561,1.65116 -12.17473,3.25177 -20.48633,4.30469 -10.29399,1.30404 -20.15548,1.59084 -27.39845,1.05078 -0.28599,-0.0213 -0.38822,-0.0775 -0.66602,-0.10157 5.35597,-1.65099 12.17551,-3.25382 20.48633,-4.30664 5.14701,-0.65202 10.1846,-1.04962 14.84181,-1.21679 z"
         id="path50418"
         inkscape:label="haloback_outline"
         transform="translate(12.5393)" />
      <path
         id="path35265"
         style="display:inline;fill:none;fill-opacity:1;stroke:url(#radialGradient37323);stroke-width:8.414;stroke-linejoin:round;stroke-dasharray:none;stroke-opacity:1"
         d="m 921.65206,258.80109 a 8.6038964,39.155019 83.984515 0 1 -34.07062,13.0264 8.6038964,39.155019 83.984515 0 1 -43.2825,-3.22728 8.6038964,39.155019 83.984515 0 1 34.07064,-13.02642 8.6038964,39.155019 83.984515 0 1 43.28248,3.2273 z"
         transform="translate(12.539335)"
         inkscape:label="haloback" />
      <path
         sodipodi:type="star"
         style="display:inline;fill:url(#radialGradient44500);fill-opacity:1;stroke:#000000;stroke-width:8;stroke-linejoin:round;stroke-dasharray:none;stroke-opacity:1"
         id="path35261"
         inkscape:flatsided="false"
         sodipodi:sides="5"
         sodipodi:cx="860"
         sodipodi:cy="240"
         sodipodi:r1="56.568542"
         sodipodi:r2="26.938822"
         sodipodi:arg1="0.78539816"
         sodipodi:arg2="1.4137167"
         inkscape:rounded="0"
         inkscape:randomized="0"
         d="m 900,280 -35.78584,-13.39284 -29.89574,23.79578 1.67891,-38.17297 -31.86942,-21.07924 36.82347,-10.19935 10.19935,-36.82347 21.07924,31.86942 38.17297,-1.67891 -23.79578,29.89574 z"
         inkscape:transform-center-x="2.7345792"
         inkscape:transform-center-y="-2.7345747"
         transform="translate(40.785836,63.39284)"
         inkscape:label="star" />
      <path
         id="halofront_outline"
         style="color:#000000;display:inline;fill:#000000;stroke-linejoin:round;-inkscape-stroke:none"
         d="m 898.74777,263.30859 c -3.57949,0.7947 -7.5635,1.51052 -11.98241,2.07032 -7.6478,0.96882 -15.05226,1.37293 -21.32618,1.29687 l -7.0332,12.71875 c 8.42125,0.62741 18.92823,0.28244 29.99218,-1.11914 7.60936,-0.96396 14.44737,-2.29418 20.25195,-3.89062 z"
         transform="translate(12.539335)" />
      <path
         id="halofront"
         style="display:inline;fill:none;fill-opacity:1;stroke:url(#radialGradient38863);stroke-width:8.414;stroke-linejoin:round;stroke-dasharray:none;stroke-opacity:1"
         d="m 921.65206,258.80109 c 2.54375,4.48833 -12.71018,10.32045 -34.07062,13.0264 -21.36046,2.70595 -40.7387,1.26105 -43.2825,-3.22728"
         sodipodi:nodetypes="csc"
         transform="translate(12.539335)" />
    </g>
  </g>
</svg>
